<?xml version="1.0" encoding="iso-8859-1"?>
<!-- Generator: Adobe Illustrator 19.0.0, SVG Export Plug-In . SVG Version: 6.00 Build 0)  -->
<svg version="1.1" id="Capa_1" xmlns="http://www.w3.org/2000/svg" xmlns:xlink="http://www.w3.org/1999/xlink" x="0px" y="0px"
	 viewBox="0 0 469.292 469.292" style="enable-background:new 0 0 469.292 469.292;" xml:space="preserve">
<g>
	<g>
		<path d="M394.608,138.625h-21.333v-21.333c-0.053-0.994-0.251-1.975-0.587-2.912c7.319-9.984,11.261-22.042,11.253-34.421
			c-0.041-32.384-26.283-58.625-58.667-58.667c-11.079-0.037-21.936,3.102-31.285,9.045c-36.265-38.677-97.017-40.632-135.694-4.367
			c-5.64,5.288-10.621,11.239-14.834,17.722c-28.905-20.343-68.829-13.403-89.172,15.502c-12.378,17.587-15.095,40.214-7.233,60.231
			C18.775,140.5,12.934,180.51,34.008,208.791c5.19,6.964,11.745,12.797,19.266,17.141v190.027
			c0.035,29.441,23.893,53.298,53.333,53.333h213.333c29.441-0.035,53.298-23.893,53.333-53.333v-128h21.333
			c29.441-0.035,53.298-23.893,53.333-53.333v-42.667C447.906,162.518,424.049,138.66,394.608,138.625z M351.974,415.958h-0.032
			c0,17.673-14.327,32-32,32H106.608c-17.673,0-32-14.327-32-32V233.74c6.375,1.029,12.869,1.094,19.264,0.192
			c0.843-0.107,1.664-0.224,2.496-0.373c3.479-0.556,6.904-1.405,10.24-2.539v8.939c0,26.51,21.49,48,48,48c26.51,0,48-21.49,48-48
			v-50.4c43.975,10.025,88.999-11.914,108.203-52.725c3.076,0.75,6.208,1.246,9.365,1.483c0.704,0.053,1.397,0.096,2.133,0.128
			c1.003,0,1.984,0.181,2.997,0.181c1.397,0,2.741-0.245,4.117-0.341c1.205-0.085,2.389-0.149,3.584-0.299
			c2.337-0.324,4.653-0.79,6.933-1.397c1.067-0.267,2.133-0.491,3.2-0.821c2.097-0.699,4.152-1.518,6.155-2.453
			c0.875-0.395,1.824-0.629,2.677-1.067V415.958z M325.169,117.185c-5.391-0.015-10.716-1.198-15.606-3.467
			c-5.27-2.632-11.677-0.493-14.309,4.777c-0.217,0.435-0.405,0.885-0.561,1.346c-10.247,30.354-38.715,50.787-70.752,50.784
			c-9.611-0.009-19.133-1.852-28.053-5.429c-5.473-2.18-11.677,0.49-13.856,5.963c-0.5,1.256-0.757,2.595-0.757,3.946v64.853
			c0,14.728-11.939,26.667-26.667,26.667c-14.728,0-26.667-11.939-26.667-26.667v-26.667c0.107-5.719-4.443-10.442-10.162-10.549
			c-0.005,0-0.009,0-0.014,0c-0.171,0-0.32-0.117-0.491-0.117s-0.299,0.064-0.459,0.075c-0.721,0.041-1.436,0.156-2.133,0.341
			c-0.36,0.059-0.717,0.141-1.067,0.245c-1.029,0.348-1.997,0.856-2.869,1.504c-18.845,14.097-45.551,10.248-59.648-8.597
			c-5.521-7.38-8.5-16.352-8.491-25.568c-0.026-13.004,5.915-25.302,16.117-33.365c0.107,0.064,0.245,0.053,0.352,0.117
			c0.549,0.224,1.116,0.399,1.696,0.523c0.871,0.328,1.782,0.536,2.709,0.619c0.16,0,0.299,0.107,0.459,0.107
			c1.192,0.001,2.375-0.201,3.499-0.597c4.289-1.489,7.165-5.529,7.168-10.069v-6.293c-0.073-4.7-3.2-8.804-7.712-10.123
			c-1.97-4.959-2.973-10.248-2.955-15.584c-0.001-23.564,19.1-42.668,42.664-42.669c12.156-0.001,23.736,5.184,31.832,14.253
			c3.92,4.398,10.662,4.785,15.06,0.866c1.116-0.995,2.01-2.213,2.625-3.575c17.146-37.458,61.412-53.924,98.87-36.778
			c11.434,5.234,21.359,13.273,28.853,23.37c1.828,2.459,4.626,4.014,7.68,4.267c3.065,0.302,6.105-0.782,8.288-2.955
			c6.854-6.546,15.984-10.172,25.461-10.112c20.619,0,37.333,16.715,37.333,37.333C362.55,100.577,345.787,117.244,325.169,117.185z
			 M426.608,234.625c0,17.673-14.327,32-32,32h-21.333V159.958h21.333c17.673,0,32,14.327,32,32V234.625z"/>
	</g>
</g>
<g>
</g>
<g>
</g>
<g>
</g>
<g>
</g>
<g>
</g>
<g>
</g>
<g>
</g>
<g>
</g>
<g>
</g>
<g>
</g>
<g>
</g>
<g>
</g>
<g>
</g>
<g>
</g>
<g>
</g>
</svg>
